HIERARCHY
ROOT Hips
{
	OFFSET 0.000000 0.000000 0.000000
	CHANNELS 6 Xposition Yposition Zposition Zrotation Xrotation Yrotation
	JOINT Spine
	{
		OFFSET 0.000000 -0.000004 21.938875
		CHANNELS 6 Xposition Yposition Zposition Zrotation Xrotation Yrotation
		JOINT Spine1
		{
			OFFSET 0.000000 -0.000008 49.643211
			CHANNELS 6 Xposition Yposition Zposition Zrotation Xrotation Yrotation
			JOINT Neck
			{
				OFFSET 0.000000 -0.000009 54.994152
				CHANNELS 6 Xposition Yposition Zposition Zrotation Xrotation Yrotation
				JOINT Head
				{
					OFFSET 0.000000 -5.350952 41.469833
					CHANNELS 6 Xposition Yposition Zposition Zrotation Xrotation Yrotation
					End Site
					{
						OFFSET 0.000000 -0.000009 53.509460
					}
				}
			}
			JOINT LeftShoulder
			{
				OFFSET 10.679572 1.167096 44.871422
				CHANNELS 6 Xposition Yposition Zposition Zrotation Xrotation Yrotation
				JOINT LeftArm
				{
					OFFSET 30.952639 0.000000 0.000000
					CHANNELS 6 Xposition Yposition Zposition Zrotation Xrotation Yrotation
					JOINT LeftForeArm
					{
						OFFSET 80.268616 0.000000 0.000000
						CHANNELS 6 Xposition Yposition Zposition Zrotation Xrotation Yrotation
						JOINT LeftHand
						{
							OFFSET 71.790054 0.000000 0.000000
							CHANNELS 6 Xposition Yposition Zposition Zrotation Xrotation Yrotation
							End Site
							{
								OFFSET 40.132099 0.000000 0.000000
							}
						}
					}
				}
			}
			JOINT RightShoulder
			{
				OFFSET -10.701397 1.167096 44.871422
				CHANNELS 6 Xposition Yposition Zposition Zrotation Xrotation Yrotation
				JOINT RightArm
				{
					OFFSET -30.952639 0.000000 0.000000
					CHANNELS 6 Xposition Yposition Zposition Zrotation Xrotation Yrotation
					JOINT RightForeArm
					{
						OFFSET -80.268616 0.000000 0.000000
						CHANNELS 6 Xposition Yposition Zposition Zrotation Xrotation Yrotation
						JOINT RightHand
						{
							OFFSET -71.790054 0.000000 0.000000
							CHANNELS 6 Xposition Yposition Zposition Zrotation Xrotation Yrotation
							End Site
							{
								OFFSET -40.132099 0.000000 0.000000
							}
						}
					}
				}
			}
		}
	}
	JOINT LeftUpLeg
	{
		OFFSET 26.754726 0.000000 0.000000
		CHANNELS 6 Xposition Yposition Zposition Zrotation Xrotation Yrotation
		JOINT LeftLeg
		{
			OFFSET 0.000000 0.000023 -139.250336
			CHANNELS 6 Xposition Yposition Zposition Zrotation Xrotation Yrotation
			JOINT LeftFoot
			{
				OFFSET 0.000000 0.000018 -111.863556
				CHANNELS 6 Xposition Yposition Zposition Zrotation Xrotation Yrotation
				JOINT LeftToeBase
				{
					OFFSET 0.000000 -40.132088 -17.390575
					CHANNELS 6 Xposition Yposition Zposition Zrotation Xrotation Yrotation
					End Site
					{
						OFFSET 0.000000 -10.701891 0.000000
					}
				}
			}
		}
	}
	JOINT RightUpLeg
	{
		OFFSET -26.754726 0.000000 0.000000
		CHANNELS 6 Xposition Yposition Zposition Zrotation Xrotation Yrotation
		JOINT RightLeg
		{
			OFFSET 0.000000 0.000023 -139.250336
			CHANNELS 6 Xposition Yposition Zposition Zrotation Xrotation Yrotation
			JOINT RightFoot
			{
				OFFSET 0.000000 0.000018 -111.863556
				CHANNELS 6 Xposition Yposition Zposition Zrotation Xrotation Yrotation
				JOINT RightToeBase
				{
					OFFSET 0.000000 -40.132088 -17.390575
					CHANNELS 6 Xposition Yposition Zposition Zrotation Xrotation Yrotation
					End Site
					{
						OFFSET 0.000000 -10.701891 0.000000
					}
				}
			}
		}
	}
}
MOTION
Frames: 6
Frame Time: 0.041667
-7.138317 -206.082199 251.210190 85.040950 3.928359 -4.264705 -0.000001 -0.000003 21.938875 -1.339069 -9.640508 -1.427975 0.000007 -0.000011 49.643215 -0.331449 0.999177 -7.193759 -0.000007 -0.000009 54.994122 -21.324598 12.545975 23.331436 -0.000018 -5.350961 41.469841 -23.118715 7.707851 -24.628494 10.679589 1.167098 44.871407 -9.743405 -3.611401 -13.451887 30.952639 0.000011 -0.000015 -1.597047 17.299030 4.802621 80.268631 0.000003 0.000033 0.827724 -18.418585 -11.729964 71.790047 -0.000003 0.000010 -2.981918 -19.401941 41.315678 -10.701396 1.167094 44.871422 -6.292920 11.879050 6.228566 -30.952631 -0.000015 -0.000004 73.429561 12.451560 -76.471652 -80.268631 0.000042 0.000017 14.676173 -12.360400 20.433387 -71.790039 0.000022 0.000006 4.667334 -15.337238 -9.928498 26.754730 0.000002 -0.000016 0.473509 -6.180368 6.995823 -0.000005 0.000022 -139.250351 0.966290 11.939791 3.720998 0.000013 0.000024 -111.863579 24.572910 -11.717173 -3.941592 -0.000001 -40.132076 -17.390556 -0.000002 -0.000001 0.000001 -26.754723 0.000001 -0.000007 1.359673 -10.813876 7.706415 0.000020 0.000024 -139.250320 -5.442257 25.336366 -2.938322 0.000007 0.000034 -111.863548 -9.361004 -21.439644 -2.463184 -0.000008 -40.132080 -17.390575 0.000000 -0.000001 -0.000000 
-7.047987 -206.256546 251.234085 85.022509 3.920471 -4.239009 0.000021 -0.000004 21.938850 -1.350904 -9.674561 -1.431966 -0.000028 -0.000011 49.643192 -0.334131 1.010959 -7.212796 0.000029 -0.000005 54.994167 -21.315152 12.519406 23.360591 -0.000013 -5.350954 41.469872 -23.118037 7.720353 -24.705824 10.679596 1.167103 44.871429 -9.777225 -3.676398 -13.496134 30.952623 0.000009 -0.000048 -1.455739 17.040081 4.735393 80.268593 0.000017 -0.000024 0.838645 -18.239233 -11.632649 71.790062 -0.000016 0.000026 -2.960668 -19.213016 41.219710 -10.701363 1.167104 44.871384 -6.273516 11.876767 6.237318 -30.952610 -0.000003 0.000052 73.272029 12.465095 -76.397558 -80.268646 0.000014 -0.000007 14.695856 -12.263806 20.340766 -71.790077 0.000007 0.000001 4.784999 -15.239308 -9.829632 26.754732 -0.000003 -0.000029 0.416052 -6.150498 6.930203 -0.000020 0.000020 -139.250336 0.985624 11.956093 3.736510 0.000004 0.000021 -111.863564 24.644492 -11.738660 -3.907263 -0.000022 -40.132072 -17.390575 0.000001 -0.000001 -0.000001 -26.754723 -0.000001 -0.000004 1.188682 -10.739624 7.654580 0.000002 0.000025 -139.250320 -5.482605 25.197712 -2.965897 0.000001 0.000021 -111.863556 -9.159110 -21.416586 -2.413878 0.000028 -40.132072 -17.390556 0.000001 -0.000000 0.000001 
-6.957823 -206.404953 251.262558 85.011451 3.897799 -4.231995 -0.000019 -0.000004 21.938875 -1.364583 -9.660536 -1.417292 -0.000015 -0.000015 49.643215 -0.341141 0.978849 -7.238693 0.000009 -0.000005 54.994175 -21.332844 12.529417 23.370565 0.000011 -5.350937 41.469856 -23.143765 7.664982 -24.738696 10.679567 1.167099 44.871452 -9.714120 -3.650172 -13.508671 30.952656 0.000002 -0.000007 -1.431022 16.862880 4.679855 80.268585 0.000010 -0.000015 0.898536 -18.140967 -11.572267 71.790070 -0.000003 0.000093 -2.989638 -19.120090 41.211784 -10.701392 1.167101 44.871403 -6.275064 11.896439 6.235176 -30.952620 -0.000015 0.000031 73.166605 12.502340 -76.332548 -80.268593 0.000003 -0.000012 14.691785 -12.168893 20.338700 -71.790100 0.000009 -0.000013 4.801213 -15.150840 -9.949939 26.754700 0.000000 -0.000005 0.359949 -6.089246 6.906548 -0.000001 0.000023 -139.250336 1.008896 11.904835 3.699409 0.000006 0.000027 -111.863564 24.684468 -11.707694 -3.887438 0.000006 -40.132095 -17.390577 0.000001 0.000002 -0.000001 -26.754726 0.000001 0.000007 0.917239 -10.672596 7.610934 -0.000016 0.000029 -139.250351 -5.431835 25.084230 -2.996926 -0.000024 0.000032 -111.863579 -9.011995 -21.408231 -2.397049 0.000000 -40.132088 -17.390575 0.000000 0.000001 0.000001 
-6.876814 -206.569595 251.290329 85.016608 3.892882 -4.193677 -0.000006 -0.000002 21.938868 -1.350456 -9.740310 -1.410876 0.000011 -0.000011 49.643200 -0.333103 1.013365 -7.299063 0.000016 -0.000014 54.994194 -21.410188 12.636153 23.416011 0.000018 -5.350944 41.469860 -23.216238 7.542459 -24.809452 10.679585 1.167096 44.871456 -9.851374 -3.559522 -13.497588 30.952662 -0.000003 -0.000018 -1.253643 16.672075 4.634027 80.268585 0.000006 -0.000021 0.939948 -18.026025 -11.546040 71.790085 -0.000006 -0.000010 -2.996156 -19.002734 41.154096 -10.701369 1.167096 44.871452 -6.260956 11.907697 6.223075 -30.952646 -0.000005 0.000042 72.921470 12.529953 -76.258160 -80.268623 0.000005 0.000007 14.728504 -12.157832 20.312561 -71.790062 0.000011 0.000040 4.881318 -15.143267 -9.794145 26.754730 0.000001 -0.000002 0.354965 -6.046482 6.846036 -0.000007 0.000022 -139.250366 0.956060 11.840819 3.685110 0.000006 0.000019 -111.863564 24.738962 -11.689094 -3.918490 0.000001 -40.132080 -17.390575 0.000000 -0.000001 0.000001 -26.754719 0.000002 -0.000023 0.728905 -10.605715 7.565855 0.000013 0.000027 -139.250351 -5.444460 24.956488 -3.081274 0.000027 0.000018 -111.863564 -8.842120 -21.364828 -2.327651 0.000007 -40.132088 -17.390575 -0.000001 -0.000001 -0.000000 
-6.802726 -206.720123 251.326355 85.029920 3.885370 -4.174844 -0.000005 -0.000004 21.938871 -1.354812 -9.739487 -1.413579 0.000001 -0.000009 49.643242 -0.336533 0.978036 -7.316916 0.000004 -0.000009 54.994122 -21.434771 12.629891 23.429665 0.000028 -5.350958 41.469860 -23.245710 7.529111 -24.847911 10.679603 1.167097 44.871387 -9.848621 -3.568772 -13.533911 30.952639 0.000014 0.000002 -1.223032 16.561278 4.622864 80.268585 -0.000006 -0.000012 0.965443 -17.925755 -11.526142 71.790054 -0.000010 0.000040 -3.005721 -18.904126 41.152914 -10.701394 1.167094 44.871384 -6.322736 11.894843 6.219978 -30.952660 -0.000009 -0.000017 72.976910 12.590765 -76.257034 -80.268677 0.000001 -0.000002 14.700027 -12.209761 20.373090 -71.790077 -0.000014 -0.000006 4.820701 -15.197489 -9.920493 26.754717 -0.000000 0.000008 0.316425 -6.038873 6.797032 0.000006 0.000021 -139.250351 1.013464 11.894008 3.690150 0.000002 0.000028 -111.863564 24.766665 -11.697824 -3.889831 0.000001 -40.132092 -17.390577 0.000001 0.000002 -0.000001 -26.754711 0.000001 0.000001 0.479363 -10.551479 7.531497 0.000007 0.000029 -139.250351 -5.364068 24.840642 -3.176707 -0.000013 0.000027 -111.863571 -8.712723 -21.319565 -2.273587 0.000025 -40.132092 -17.390575 -0.000001 0.000000 -0.000000 
-6.736179 -206.865860 251.354065 85.060000 3.871896 -4.153910 -0.000012 -0.000004 21.938862 -1.407274 -9.720116 -1.452414 -0.000018 -0.000006 49.643211 -0.358026 0.901384 -7.298608 0.000032 -0.000005 54.994175 -21.422339 12.634644 23.427805 -0.000012 -5.350945 41.469856 -23.231826 7.523626 -24.812322 10.679593 1.167096 44.871433 -9.807005 -3.524161 -13.532778 30.952654 0.000005 0.000020 -1.176428 16.532510 4.545589 80.268593 0.000011 0.000007 0.981758 -17.879762 -11.454907 71.790085 0.000002 0.000073 -2.998834 -18.852999 41.082953 -10.701375 1.167095 44.871387 -6.316309 11.961587 6.261609 -30.952631 -0.000007 0.000020 72.658965 12.525622 -76.124856 -80.268631 0.000007 0.000001 14.783350 -12.143629 20.323284 -71.790092 0.000022 0.000001 4.778986 -15.138011 -9.946928 26.754723 0.000000 -0.000031 0.300756 -6.005997 6.758723 0.000016 0.000023 -139.250366 1.055861 11.889992 3.648098 -0.000005 0.000023 -111.863548 24.714756 -11.682247 -3.853971 0.000021 -40.132095 -17.390594 0.000000 0.000002 -0.000001 -26.754726 0.000002 -0.000017 0.193625 -10.509635 7.484544 0.000001 0.000026 -139.250320 -5.304053 24.753990 -3.239992 0.000004 0.000022 -111.863579 -8.590230 -21.278927 -2.316937 0.000012 -40.132095 -17.390575 -0.000000 -0.000003 -0.000001 
